<svg width="27" height="16" viewBox="0 0 27 16" fill="none" xmlns="http://www.w3.org/2000/svg">
<path fill-rule="evenodd" clip-rule="evenodd" d="M8.01159 2.2221C8.26106 1.97578 8.26106 1.57788 8.01159 1.33157C7.76448 1.08446 7.36659 1.08446 7.12027 1.33157L0.816324 7.63157C0.699482 7.75157 0.631586 7.91183 0.631586 8.07841C0.631586 8.08157 0.634745 8.08788 0.634745 8.09104C0.634745 8.09736 0.631586 8.10052 0.631586 8.10683C0.631586 8.31604 0.739744 8.4921 0.900007 8.60578L7.14474 14.8537C7.39185 15.1008 7.79211 15.1008 8.03922 14.8537C8.28553 14.6074 8.28553 14.2095 8.03922 13.9631L2.81527 8.73525L25.2624 8.73525C25.6113 8.73525 25.8947 8.45499 25.8947 8.10683C25.8947 7.75473 25.6113 7.47446 25.2624 7.47446L2.76238 7.47446L8.01159 2.2221Z" fill="#4E72CA"/>
</svg>
