<svg width="75" height="75" viewBox="0 0 75 75" fill="none" xmlns="http://www.w3.org/2000/svg">
<rect width="75" height="75" rx="20" fill="#F6DAC2"/>
<path fill-rule="evenodd" clip-rule="evenodd" d="M56 39.0667L57.375 39.4417C57.5973 39.4872 57.7914 39.6214 57.9125 39.8133C58.0336 40.0051 58.0712 40.2381 58.0167 40.4583L57.1833 43.4583C57.0652 43.9019 56.6107 44.1664 56.1667 44.05L55.8333 43.9583L54.0167 50.725C53.5803 52.3881 52.4931 53.8057 51 54.6583L46.1333 57.4583C44.7314 58.2721 43.0568 58.4742 41.5016 58.0172C39.9464 57.5603 38.6472 56.4844 37.9083 55.0417C37.8174 54.8659 37.7367 54.6851 37.6667 54.5H35.45V54.775C35.45 55.2352 35.0769 55.6083 34.6167 55.6083H30.1667C29.7064 55.6083 29.3333 55.2352 29.3333 54.775V54.5H23.5C22.1193 54.5 21 53.3807 21 52V34.1667H20.725C20.2648 34.1667 19.8917 33.7936 19.8917 33.3333V28.8833C19.8917 28.4231 20.2648 28.05 20.725 28.05H21V22C21 20.6193 22.1193 19.5 23.5 19.5H29.3333V19.225C29.3333 18.7648 29.7064 18.3917 30.1667 18.3917H34.65C35.1102 18.3917 35.4833 18.7648 35.4833 19.225V19.5H53.5C54.8807 19.5 56 20.6193 56 22V28.05H56.275C56.7352 28.05 57.1083 28.4231 57.1083 28.8833V33.3333C57.1083 33.7936 56.7352 34.1667 56.275 34.1667H56V39.0667ZM39.6667 32.5H55.4417V29.7167H39.6667C39.3624 30.2627 38.9447 30.7373 38.4417 31.1083C38.9447 31.4794 39.3624 31.9539 39.6667 32.5ZM35.4833 21.1667H53.5C53.9602 21.1667 54.3333 21.5398 54.3333 22V28.05H40.1667C40.1915 27.9038 40.2082 27.7564 40.2167 27.6083C40.2167 25.2151 38.2766 23.275 35.8833 23.275C35.7409 23.2802 35.599 23.2941 35.4583 23.3167L35.4833 21.1667ZM38.575 27.6083C38.575 26.1356 37.3811 24.9417 35.9083 24.9417C35.2011 24.9417 34.5228 25.2226 34.0227 25.7227C33.5226 26.2228 33.2417 26.9011 33.2417 27.6083V27.8917C34.4056 28.199 35.3134 29.11 35.6167 30.275H35.9083C37.3811 30.275 38.575 29.0811 38.575 27.6083ZM31.575 27.6083V27.8917C30.4078 28.1963 29.4963 29.1078 29.1917 30.275H28.9083C27.4356 30.275 26.2417 29.0811 26.2417 27.6083C26.2417 26.1356 27.4356 24.9417 28.9083 24.9417C30.3811 24.9417 31.575 26.1356 31.575 27.6083ZM34.075 31.1083C34.075 30.1879 33.3288 29.4417 32.4083 29.4417C31.4879 29.4417 30.7417 30.1879 30.7417 31.1083C30.7417 32.0288 31.4879 32.775 32.4083 32.775C33.3288 32.775 34.075 32.0288 34.075 31.1083ZM31 20.0583H33.7833V23.8333C33.2255 24.1347 32.7439 24.5594 32.375 25.075C32.0079 24.5768 31.5392 24.1621 31 23.8583V20.0583ZM23.5 21.1667C23.0398 21.1667 22.6667 21.5398 22.6667 22V28.05H24.5833C24.5585 27.9038 24.5418 27.7564 24.5333 27.6083C24.5379 25.2137 26.4804 23.275 28.875 23.275C29.0284 23.2802 29.1815 23.2942 29.3333 23.3167V21.1667H23.5ZM21.5583 32.5V29.7167H25.1667C25.4713 30.265 25.8923 30.7399 26.4 31.1083C25.8923 31.4767 25.4713 31.9517 25.1667 32.5H21.5583ZM23.5 52.8333H29.3333L29.3667 38.9417C29.214 38.9503 29.061 38.9503 28.9083 38.9417C26.5137 38.9417 24.5713 37.0029 24.5667 34.6083C24.5746 34.4603 24.5913 34.3128 24.6167 34.1667H22.6667V52C22.6667 52.4602 23.0398 52.8333 23.5 52.8333ZM28.875 37.275C27.9223 37.275 27.0419 36.7667 26.5656 35.9417C26.0892 35.1166 26.0892 34.1001 26.5656 33.275C27.0419 32.4499 27.9223 31.9417 28.875 31.9417H29.1583C29.463 33.1088 30.3745 34.0203 31.5417 34.325V34.6083C31.5418 36.0682 30.3681 37.2567 28.9083 37.275H28.875ZM31 53.9417H33.7833V38.3833C33.2282 38.0782 32.7472 37.6542 32.375 37.1417C32.0079 37.6399 31.5392 38.0546 31 38.3583V53.9417ZM33.2083 34.6083V34.325C34.3723 34.0177 35.2801 33.1067 35.5833 31.9417H35.875C37.3478 31.9417 38.5417 33.1356 38.5417 34.6083C38.5417 36.0811 37.3478 37.275 35.875 37.275C34.4022 37.275 33.2083 36.0811 33.2083 34.6083ZM35.4833 52.8333H37.275C37.1107 50.5005 38.3001 48.2805 40.3333 47.125L42.9917 45.55C43.0584 45.5087 43.1062 45.4429 43.125 45.3667L44.3333 40.8667L44 40.775C43.5598 40.6532 43.2996 40.1998 43.4167 39.7583L44.25 36.7583C44.3681 36.3148 44.8227 36.0502 45.2667 36.1667L54.3333 38.6667V34.1667H40.1667C40.1989 34.2985 40.2239 34.4321 40.2417 34.5667C40.2417 36.9599 38.3016 38.9 35.9083 38.9C35.7668 38.9086 35.6249 38.9086 35.4833 38.9V52.8333ZM43.4417 56.5583C42.945 56.5995 42.4449 56.5487 41.9667 56.4083C40.6762 56.05 39.6366 55.0932 39.1727 53.8368C38.7088 52.5805 38.8771 51.1777 39.625 50.0667C41.9667 51.0575 43.4845 53.3573 43.475 55.9C43.5 56.1667 43.5 56.35 43.4417 56.5583ZM50.1667 53.2167C51.2552 52.5835 52.0513 51.548 52.3833 50.3333L52.5667 49.7C50.8737 49.8343 49.566 51.2434 49.5583 52.9417C49.5636 53.1377 49.5859 53.3329 49.625 53.525L50.1667 53.2167ZM52.9917 48.0583H52.8C50.0773 48.0629 47.8713 50.269 47.8667 52.9917C47.8689 53.4869 47.9476 53.9788 48.1 54.45L45.2917 56.0667C45.2373 56.0882 45.1844 56.1133 45.1333 56.1417V55.9917C45.1513 52.996 43.5043 50.2381 40.8583 48.8333C40.8963 48.808 40.933 48.7804 40.9699 48.7526C41.0303 48.7071 41.0911 48.6612 41.1583 48.625L43.85 47C44.3051 46.7442 44.6362 46.3138 44.7667 45.8083L46 41.325L54.225 43.525L52.9917 48.0583ZM45.275 39.4083L55.7667 42.2667L56.1333 40.8333L45.6417 38.0167L45.275 39.4083Z" fill="#3D3D63"/>
</svg>
