<svg width="75" height="75" viewBox="0 0 75 75" fill="none" xmlns="http://www.w3.org/2000/svg">
<rect width="75" height="75" rx="20" fill="#B4E2E1"/>
<path fill-rule="evenodd" clip-rule="evenodd" d="M60.1 53.5667L51.95 42C55.6083 35.2109 53.9356 26.781 47.9624 21.903C41.9892 17.025 33.395 17.0706 27.4739 22.0118C21.5528 26.9529 19.9698 35.4002 23.7 42.15L15.65 53.5667C15.3518 53.9824 15.3125 54.5304 15.5483 54.9845C15.7841 55.4385 16.255 55.7215 16.7667 55.7167H58.9833C59.4949 55.7215 59.9659 55.4385 60.2017 54.9845C60.4375 54.5304 60.3982 53.9824 60.1 53.5667ZM26.7667 40.5917L29.7667 44.85L28.4333 46.7417L27.35 45.6583C27.1968 45.5064 26.9907 45.4197 26.775 45.4167C26.5593 45.4197 26.3531 45.5064 26.2 45.6583L24.0083 47.8333L22.625 46.475L26.7667 40.5917ZM41.5667 29.0083L42.25 28.0917L38.6 28.0833V30.9H42.25L41.5667 29.9833C41.3567 29.6922 41.3567 29.2994 41.5667 29.0083ZM37.775 36.3083L42.5167 43.0417L40.8917 44.6667L38.4417 42.2167C38.1197 41.9098 37.6136 41.9098 37.2917 42.2167L34.9833 44.5L33.225 42.7417L37.775 36.3083ZM34.4 46.2583L32.2667 44.125L25.25 54.0917H50.325L43.475 44.375L41.475 46.3833C41.1531 46.6902 40.6469 46.6902 40.325 46.3833L37.875 43.9333L35.55 46.2583C35.2281 46.5652 34.7219 46.5652 34.4 46.2583ZM45.875 44.9583L48.9667 40.575L53.1333 46.4583L51.7417 47.8333L49.5417 45.6583C49.3885 45.5064 49.1824 45.4197 48.9667 45.4167C48.7509 45.4197 48.5448 45.5064 48.3917 45.6583L47.2083 46.85L45.875 44.9583ZM32.4421 20.927C26.9319 23.1161 23.3152 28.4458 23.3167 34.375C23.3147 36.5408 23.7988 38.6795 24.7333 40.6333L25.6417 39.35C25.9101 39.0061 26.3221 38.8051 26.7583 38.8051C27.1946 38.8051 27.6065 39.0061 27.875 39.35L30.7417 43.4083L36.6417 35.075C36.7255 34.9618 36.8301 34.8657 36.95 34.7917V27.2917C36.95 26.8314 37.3231 26.4583 37.7833 26.4583H43.8917C44.1927 26.4727 44.4625 26.6485 44.5972 26.918C44.732 27.1876 44.7108 27.5089 44.5417 27.7583L43.2333 29.5L44.5417 31.2167C44.7114 31.4673 44.7319 31.7903 44.5951 32.0604C44.4583 32.3305 44.1858 32.5052 43.8833 32.5167H38.6V34.775C38.7155 34.8515 38.817 34.9474 38.9 35.0583L44.8583 43.5583L47.825 39.35C48.0935 39.0061 48.5054 38.8051 48.9417 38.8051C49.3779 38.8051 49.7899 39.0061 50.0583 39.35L50.8917 40.4917C53.4 35.1192 52.3762 28.7601 48.3084 24.4464C44.2405 20.1327 37.9524 18.7379 32.4421 20.927ZM21.6833 47.8333L23.4333 49.5833C23.7552 49.8902 24.2614 49.8902 24.5833 49.5833L26.7833 47.3917L27.4917 48.1L23.6333 53.575C23.5253 53.733 23.4516 53.9118 23.4167 54.1H17.2583L21.6833 47.8333ZM51.9417 53.575C52.0471 53.7335 52.1181 53.9123 52.15 54.1L58.5333 54.0917L54.1083 47.825L52.3583 49.575C52.0364 49.8819 51.5302 49.8819 51.2083 49.575L48.9917 47.375L48.1583 48.2083L51.9417 53.575Z" fill="#3D3D63"/>
</svg>
