<svg width="75" height="75" viewBox="0 0 75 75" fill="none" xmlns="http://www.w3.org/2000/svg">
<rect width="75" height="75" rx="20" fill="#FF9E83"/>
<path fill-rule="evenodd" clip-rule="evenodd" d="M55.15 56.4417H57.3833V56.45C57.8436 56.45 58.2167 56.8231 58.2167 57.2833C58.2167 57.7436 57.8436 58.1167 57.3833 58.1167H20.6167C20.1564 58.1167 19.7833 57.7436 19.7833 57.2833C19.7833 56.8231 20.1564 56.45 20.6167 56.45H22.85V55.825C22.8546 51.5711 26.3044 48.125 30.5583 48.125H31.5L31.2 47.5833C31.0511 47.3255 31.0511 47.0078 31.2 46.75L32.4 44.6667C30.3246 42.8895 29.091 40.3225 29 37.5917C27.0637 37.276 25.6255 35.6279 25.575 33.6667V32.6083C25.6113 31.2906 26.7071 30.2507 28.025 30.2833H29V29.375H27.7417C26.3516 29.2966 25.2645 28.1465 25.2645 26.7542C25.2645 25.3619 26.3516 24.2118 27.7417 24.1333H29.8333V19.8C29.8316 18.5355 30.4417 17.3482 31.471 16.6135C32.5002 15.8788 33.8213 15.6875 35.0167 16.1L37.7167 17C38.5488 17.2832 39.4512 17.2832 40.2833 17L42.9917 16.1C44.186 15.6908 45.5045 15.8838 46.5315 16.6181C47.5585 17.3524 48.1675 18.5375 48.1667 19.8V24.1333H50.2667C51.6568 24.2118 52.7438 25.3619 52.7438 26.7542C52.7438 28.1465 51.6568 29.2966 50.2667 29.375H49V30.2833H49.975C51.2929 30.2507 52.3886 31.2906 52.425 32.6083V33.6667C52.3745 35.6279 50.9363 37.276 49 37.5917C48.9092 40.3267 47.6722 42.8974 45.5917 44.675L46.7917 46.7583C46.9405 47.0162 46.9405 47.3338 46.7917 47.5917L46.5 48.1167H46.7667H47.4417C51.6956 48.1167 55.1454 51.5627 55.15 55.8167V56.4417ZM27.2417 33.6667C27.2828 34.7059 27.9954 35.5975 29 35.8667V31.95H28.025C27.6271 31.9163 27.2769 32.2106 27.2417 32.6083V33.6667ZM45.1 47.175L42.525 51.8917L40.2 49.575L44.3 45.8L45.1 47.175ZM50.7583 32.6083C50.723 32.2106 50.3728 31.9163 49.975 31.95H49V35.8667C50.0046 35.5975 50.7171 34.7059 50.7583 33.6667V32.6083ZM31.5 19.8C31.4947 19.0739 31.8468 18.3915 32.4417 17.975C33.031 17.5519 33.7886 17.4401 34.475 17.675L37.1667 18.6C38.3504 19.0001 39.6329 19.0001 40.8167 18.6L43.5083 17.675C44.1947 17.4401 44.9524 17.5519 45.5417 17.975C46.1428 18.3878 46.5015 19.0708 46.5 19.8V21.1167H31.5V19.8ZM46.5 22.7833H31.5V24.1333H46.5V22.7833ZM27.7333 27.7083C27.2408 27.6623 26.8643 27.2489 26.8643 26.7542C26.8643 26.2595 27.2408 25.8461 27.7333 25.8H50.2333C50.7259 25.8461 51.1024 26.2595 51.1024 26.7542C51.1024 27.2489 50.7259 27.6623 50.2333 27.7083H27.7333ZM30.6667 29.375V37.3C30.6667 41.9024 34.3976 45.6334 39 45.6334C43.6024 45.6334 47.3333 41.9024 47.3333 37.3V29.375H30.6667ZM39 47.1167C39.5216 47.1161 40.0424 47.0771 40.5583 47L39 48.4167L37.4417 47C37.9575 47.0771 38.4784 47.1161 39 47.1167ZM35.475 51.9333L37.8 49.6167L33.7333 45.8417L32.9 47.2167L35.475 51.9333ZM36.225 56.4834H24.5167V55.8584C24.5213 52.5249 27.2249 49.825 30.5583 49.825H31.4417C31.7545 49.8223 32.0666 49.7944 32.375 49.7417L34.55 53.6667C34.6731 53.899 34.8985 54.0596 35.1583 54.1H35.2833C35.5031 54.0969 35.7128 54.007 35.8667 53.85L36.05 53.675C36.1498 54.0309 36.4721 54.2786 36.8417 54.2834L36.225 56.4834ZM38.6083 54.3333L37.9667 56.4833H40.0333L39.3917 54.3333H38.6083ZM40.4667 52.6667H37.55L37.4833 52.2917L39 50.7333L40.525 52.25L40.4667 52.6667ZM41.775 56.4833H53.4917L53.5 55.8167C53.4954 52.4832 50.7918 49.7833 47.4583 49.7833H46.7833C46.4079 49.7793 46.0337 49.7374 45.6667 49.6583L43.425 53.7167C43.3019 53.949 43.0764 54.1096 42.8167 54.15H42.6917C42.4719 54.1469 42.2622 54.057 42.1083 53.9L41.925 53.725C41.8252 54.0809 41.5029 54.3286 41.1333 54.3333L41.775 56.4833Z" fill="#3D3D63"/>
<path d="M35.7334 39.0833C35.5296 39.1711 35.3692 39.3367 35.2879 39.5432C35.2065 39.7496 35.2109 39.9801 35.3 40.1833C35.9397 41.6573 37.3932 42.6111 39 42.6111C40.6069 42.6111 42.0604 41.6573 42.7 40.1833C42.8887 39.7599 42.6985 39.2637 42.275 39.075C41.8516 38.8863 41.3554 39.0766 41.1667 39.5C40.7945 40.3659 39.9425 40.927 39 40.927C38.0575 40.927 37.2055 40.3659 36.8334 39.5C36.644 39.0818 36.1522 38.8956 35.7334 39.0833Z" fill="#3D3D63"/>
<path d="M35.3 34.1667C35.7602 34.1667 36.1333 33.7936 36.1333 33.3334V32.375C36.1333 31.9148 35.7602 31.5417 35.3 31.5417C34.8398 31.5417 34.4667 31.9148 34.4667 32.375V33.3334C34.4667 33.7936 34.8398 34.1667 35.3 34.1667Z" fill="#3D3D63"/>
<path d="M42.7 34.1667C43.1603 34.1667 43.5334 33.7936 43.5334 33.3334V32.375C43.5334 31.9148 43.1603 31.5417 42.7 31.5417C42.2398 31.5417 41.8667 31.9148 41.8667 32.375V33.3334C41.8667 33.7936 42.2398 34.1667 42.7 34.1667Z" fill="#3D3D63"/>
</svg>
