<svg width="75" height="75" viewBox="0 0 75 75" fill="none" xmlns="http://www.w3.org/2000/svg">
<rect width="75" height="75" rx="20" fill="#F6DAC2"/>
<path d="M25.4095 38.8666C25.6229 38.8288 25.8125 38.7077 25.9366 38.5301C26.0606 38.3524 26.109 38.1327 26.071 37.9193L25.875 36.9148C25.824 36.623 25.6211 36.3807 25.3429 36.279C25.0647 36.1773 24.7534 36.2318 24.5262 36.4219C24.2991 36.612 24.1906 36.9089 24.2417 37.2006L24.4213 38.2133C24.4604 38.4339 24.5883 38.6287 24.7751 38.7522C24.9619 38.8757 25.1913 38.9171 25.4095 38.8666Z" fill="#3D3D63"/>
<path d="M22.7145 41.4473L23.7353 41.2677C24.0567 41.2544 24.3403 41.0539 24.4598 40.7553C24.5794 40.4568 24.5126 40.1159 24.2893 39.8845C24.0659 39.6531 23.7276 39.5744 23.425 39.6833L22.4123 39.863C21.9613 39.9397 21.6578 40.3675 21.7345 40.8185C21.8112 41.2695 22.239 41.573 22.69 41.4963L22.7145 41.4473Z" fill="#3D3D63"/>
<path d="M25.1808 42.2803L25.3605 43.293C25.4394 43.7336 25.8582 44.0287 26.2997 43.9545C26.7436 43.8796 27.0431 43.4595 26.9693 43.0153L26.7897 41.9945C26.7184 41.5583 26.3131 41.2579 25.875 41.3167C25.6522 41.3463 25.4515 41.4665 25.3202 41.6489C25.1888 41.8312 25.1384 42.0596 25.1808 42.2803Z" fill="#3D3D63"/>
<path d="M27.8023 40.549L28.815 40.3693C29.1068 40.3183 29.3491 40.1154 29.4508 39.8372C29.5524 39.559 29.498 39.2477 29.3079 39.0206C29.1178 38.7934 28.8209 38.6849 28.5292 38.736L27.5083 38.9402C27.0573 39.0191 26.7556 39.4487 26.8346 39.8998C26.9135 40.3508 27.3431 40.6524 27.7942 40.5735L27.8023 40.549Z" fill="#3D3D63"/>
<path d="M42.2736 36.3432L41.261 36.5228C41.0448 36.555 40.8505 36.6724 40.7215 36.8489C40.5926 37.0254 40.5398 37.2463 40.575 37.462C40.6109 37.6769 40.7312 37.8685 40.9091 37.9943C41.087 38.12 41.3077 38.1695 41.5223 38.1317L42.5431 37.952C42.7565 37.9142 42.9461 37.7931 43.0702 37.6154C43.1943 37.4377 43.2426 37.218 43.2046 37.0047C43.1257 36.5678 42.7122 36.2739 42.2736 36.3432Z" fill="#3D3D63"/>
<path d="M44.6584 38.05C44.2178 38.1289 43.9227 38.5477 43.9969 38.9892L44.1765 40.01C44.2554 40.4506 44.6743 40.7457 45.1157 40.6715C45.3407 40.6385 45.5418 40.513 45.6705 40.3255C45.7991 40.1379 45.8437 39.9052 45.7935 39.6833L45.6139 38.6707C45.5161 38.2391 45.0924 37.9639 44.6584 38.05Z" fill="#3D3D63"/>
<path d="M53.1516 31.68C52.7479 31.4795 52.2582 31.644 52.0573 32.0475C51.5539 33.0369 50.4481 33.5642 49.3624 33.3325C48.2767 33.1008 47.4825 32.1681 47.4268 31.0593C47.4268 30.6083 47.0612 30.2427 46.6101 30.2427C46.1591 30.2427 45.7935 30.6083 45.7935 31.0593C45.8854 32.911 47.2133 34.4684 49.0272 34.8518C50.841 35.2353 52.6856 34.3487 53.5191 32.6927C53.6682 32.3107 53.511 31.8775 53.1516 31.68Z" fill="#3D3D63"/>
<path d="M47.1083 28.6992C47.3878 28.7625 47.6809 28.7119 47.923 28.5587C48.1651 28.4055 48.3363 28.1622 48.3987 27.8825C48.5261 27.2994 48.1628 26.7217 47.582 26.584C46.9923 26.4681 46.4184 26.8459 46.2917 27.4333C46.1839 28.0053 46.5428 28.5615 47.1083 28.6992Z" fill="#3D3D63"/>
<path d="M53.7478 27.8825C53.3187 27.7834 52.8721 27.9533 52.6174 28.3126C52.3626 28.6719 52.3501 29.1495 52.5856 29.5217C52.8212 29.8939 53.2582 30.087 53.692 30.0105C54.1258 29.934 54.4704 29.6032 54.5645 29.1729C54.6869 28.5925 54.3248 28.0202 53.7478 27.8825Z" fill="#3D3D63"/>
<path fill-rule="evenodd" clip-rule="evenodd" d="M58.2967 31.9087C59.2634 27.5114 56.6067 23.13 52.2607 21.954C47.9148 20.7781 43.4112 23.2221 42.0287 27.5068C41.2507 27.7458 40.5267 28.1342 39.8972 28.6502C39.3842 29.0787 39.0685 29.6982 39.0234 30.3652L38.8682 32.562L38.7212 32.7743L36.3774 33.1908C37.6024 31.4595 38.9907 28.74 37.9454 26.192C36.4019 22.4598 30.775 22.5333 29.0927 22.664C27.7546 22.734 26.4352 23.0095 25.1809 23.4807C23.7109 24.0605 22.6655 24.1422 21.7917 23.7338C21.3112 23.49 20.9991 23.0063 20.975 22.468C20.9517 22.1762 20.7745 21.9191 20.5101 21.7934C20.2458 21.6677 19.9345 21.6927 19.6935 21.8588C19.4524 22.0248 19.3184 22.3069 19.3417 22.5987C19.4009 23.7415 20.0811 24.7601 21.1139 25.2528C22.6378 25.8248 24.3299 25.7451 25.7934 25.0323C26.8889 24.6112 28.0433 24.3632 29.2152 24.2973C32.1307 24.0932 35.5444 24.6485 36.4427 26.8127C37.5452 29.4995 34.6624 32.8315 33.9192 33.6237L29.6399 34.375L29.4275 34.2198L28.5292 32.2108C28.2629 31.599 27.754 31.1256 27.1245 30.9042C25.0599 30.2013 22.7791 30.6051 21.0812 31.974C20.5701 32.4006 20.2547 33.0168 20.2074 33.6808L20.0522 35.8777C19.1256 37.0933 18.6236 38.5795 18.623 40.108V40.3122V40.892L17.8064 53.5095C17.6143 56.2799 19.5462 58.7477 22.2817 59.2262C25.0057 59.7037 27.6535 58.0581 28.4312 55.4042L30.2524 49.1975C30.3231 49.2015 30.394 49.2015 30.4647 49.1975C32.3842 49.1612 33.9476 47.6442 34.0417 45.7267L38.3782 44.9672C38.9559 46.3176 40.2822 47.1943 41.751 47.1967C42.2487 47.1983 42.7412 47.0954 43.1965 46.8945L47.0267 52.0967C48.6715 54.3112 51.7151 54.941 54.1036 53.5609C56.4921 52.1808 57.4665 49.2294 56.3694 46.6985L52.6617 38.1643C55.5198 37.231 57.666 34.8484 58.2967 31.9087ZM40.6567 30.4795C40.6704 30.2622 40.7704 30.0593 40.9344 29.916C41.1516 29.7367 41.387 29.5807 41.6367 29.4505C41.6205 29.7661 41.6205 30.0823 41.6367 30.3978C41.2929 30.5497 40.9624 30.73 40.6485 30.9368L40.6567 30.4795ZM38.9989 41.1452C37.495 39.3027 37.0418 36.8175 37.7984 34.5628L31.1099 35.7715C32.5985 37.6324 33.0272 40.1273 32.245 42.3783C32.9346 42.7753 33.4764 43.3859 33.7885 44.1178L38.125 43.3583C38.1584 42.5432 38.4664 41.7633 38.9989 41.1452ZM21.8325 33.7462C21.8463 33.5288 21.9462 33.326 22.1102 33.1827C23.3592 32.1592 25.047 31.8506 26.5774 32.366C26.7815 32.4433 26.9462 32.5992 27.0347 32.7988L27.2144 33.2072C25.3414 32.773 23.3722 33.1496 21.7917 34.2443L21.8325 33.7462ZM30.9955 40.059C30.9955 37.0899 28.591 34.6817 25.6219 34.6772V34.7017C22.7333 34.8143 20.4496 37.1887 20.4496 40.0794C20.4496 42.9702 22.7333 45.3446 25.6219 45.4572C26.0204 45.4532 26.4174 45.4067 26.806 45.3183C26.91 43.3854 28.5045 41.8697 30.4402 41.8638C30.5191 41.8598 30.5981 41.8598 30.677 41.8638C30.887 41.2852 30.9948 40.6745 30.9955 40.059ZM26.8387 54.8733C26.3055 56.739 24.4493 57.9004 22.5383 57.5641C20.6274 57.2277 19.2793 55.5022 19.4152 53.5667L20.0114 44.2322C21.3266 46.0127 23.4082 47.0641 25.6219 47.066C26.1107 47.0614 26.5978 47.0067 27.0755 46.9027C27.3932 47.6502 27.9506 48.2708 28.6599 48.6667L26.8387 54.8733ZM28.569 46.2731C28.8825 47.0299 29.621 47.5233 30.4402 47.5233V47.5642C30.9845 47.5643 31.5059 47.3453 31.887 46.9566C32.268 46.5679 32.4765 46.0422 32.4655 45.498C32.4655 44.6788 31.9721 43.9403 31.2153 43.6268C30.4584 43.3134 29.5873 43.4866 29.0081 44.0659C28.4288 44.6451 28.2556 45.5163 28.569 46.2731ZM41.7837 45.5633C40.6683 45.5633 39.7629 44.6615 39.7584 43.5462C39.7564 43.1053 39.9031 42.6766 40.1749 42.3293C41.2156 43.1389 42.4642 43.6372 43.7764 43.7667C43.668 44.7863 42.8091 45.5607 41.7837 45.5633ZM41.8327 32.0965C40.1325 33.0448 39.0769 34.8374 39.0724 36.7842C39.0778 39.3975 40.9626 41.6281 43.5384 42.0695C46.1142 42.5109 48.6341 41.0351 49.5094 38.5727C49.0978 38.5464 48.6885 38.4918 48.2844 38.4093C45.0952 37.7274 42.5838 35.2701 41.8327 32.0965ZM54.9075 47.3518C55.6732 49.1215 54.9912 51.1841 53.3214 52.1484C51.6516 53.1127 49.5243 52.6725 48.3742 51.1248L44.5359 45.9145C45.0579 45.3149 45.3678 44.5601 45.4179 43.7667C48.1145 43.3848 50.3447 41.4732 51.1345 38.8667L54.9075 47.3518ZM43.3389 31.3993C43.8433 34.1088 45.9308 36.2473 48.6274 36.8168C52.3025 37.5931 55.9124 35.2474 56.696 31.5738C57.271 28.8784 56.165 26.1022 53.894 24.5406C51.623 22.9791 48.6348 22.94 46.3238 24.4417C44.0128 25.9434 42.8346 28.6898 43.3389 31.3993Z" fill="#3D3D63"/>
</svg>
